<svg xmlns="http://www.w3.org/2000/svg" version="1.1" xmlns:xlink="http://www.w3.org/1999/xlink" xmlns:svgjs="http://svgjs.dev/svgjs" width="1920" height="1920" preserveAspectRatio="none" viewBox="0 0 1920 1920"><g mask="url(&quot;#SvgjsMask1195&quot;)" fill="none"><rect width="1920" height="1920" x="0" y="0" fill="rgba(26, 26, 26, 1)"></rect><path d="M -597.6876554057045,841 C -405.69,869.2 -21.69,977.6 362.3123445942955,982 C 746.31,986.4 938.31,865.8 1322.3123445942956,863 C 1706.31,860.2 2162.77,951.6 2282.3123445942956,968 C 2401.85,984.4 1992.46,949.6 1920,945" stroke="rgba(105, 172, 255, 1)" stroke-width="2"></path><path d="M -489.97274728668094,865 C -297.97,884.8 86.03,952.4 470.02725271331906,964 C 854.03,975.6 1046.03,864.4 1430.027252713319,923 C 1814.03,981.6 2292.03,1259 2390.0272527133193,1257 C 2488.02,1255 2014.01,981.8 1920,913" stroke="rgba(105, 172, 255, 1)" stroke-width="2"></path><path d="M -1785.8338395873566,1111 C -1593.83,1041.6 -1209.83,774 -825.8338395873566,764 C -441.83,754 -249.83,1027 134.16616041264342,1061 C 518.17,1095 737,919.6 1094.1661604126434,934 C 1451.33,948.4 1754.83,1093.2 1920,1133" stroke="rgba(105, 172, 255, 1)" stroke-width="2"></path><path d="M -571.6106431250154,1184 C -379.61,1125.8 4.39,904.4 388.3893568749846,893 C 772.39,881.6 964.39,1139.4 1348.3893568749845,1127 C 1732.39,1114.6 2194.07,852.6 2308.3893568749845,831 C 2422.71,809.4 1997.68,981.4 1920,1019" stroke="rgba(105, 172, 255, 1)" stroke-width="2"></path></g><defs><mask id="SvgjsMask1195"><rect width="1920" height="1920" fill="#ffffff"></rect></mask></defs></svg>